<?xml version="1.0" standalone="no"?>
<!DOCTYPE svg PUBLIC "-//W3C//DTD SVG 20010904//EN"
 "http://www.w3.org/TR/2001/REC-SVG-20010904/DTD/svg10.dtd">
<svg version="1.0" xmlns="http://www.w3.org/2000/svg"
 width="355.000000pt" height="456.000000pt" viewBox="0 0 355.000000 456.000000"
 preserveAspectRatio="xMidYMid meet">
<metadata>
Created by potrace 1.16, written by Peter Selinger 2001-2019
</metadata>
<g transform="translate(0.000000,456.000000) scale(0.100000,-0.100000)"
fill="#000000" stroke="none">
<path d="M2506 4549 c-45 -144 -99 -288 -177 -472 -156 -370 -340 -702 -478
-862 -119 -138 -239 -198 -328 -164 -15 6 -77 24 -137 39 -59 16 -110 31 -112
33 -8 7 16 147 42 252 62 249 212 476 386 584 32 21 70 56 90 85 20 28 64 81
98 118 34 38 60 72 58 78 -5 15 -146 -50 -229 -106 -156 -103 -308 -277 -393
-448 -78 -158 -113 -290 -123 -461 l-6 -100 -66 0 -67 0 4 395 4 395 -47 210
c-25 115 -48 212 -52 215 -6 5 3 -665 13 -1015 l6 -200 -73 -27 c-203 -75
-370 -256 -526 -570 -111 -224 -283 -677 -325 -857 -29 -126 -36 -377 -14
-510 57 -340 254 -635 562 -841 315 -210 684 -303 1103 -279 392 24 825 196
1141 454 213 174 413 537 492 891 19 85 22 129 22 309 0 184 -2 219 -21 287
-47 165 -120 311 -217 429 -102 123 -296 260 -475 334 l-86 36 -43 84 c-51 99
-157 219 -226 255 -38 21 -44 28 -40 50 2 14 50 273 105 575 144 787 148 810
143 814 -2 2 -6 -2 -8 -10z m-108 -424 c-11 -55 -62 -308 -114 -563 -52 -254
-94 -469 -94 -476 0 -7 15 -19 33 -28 90 -43 210 -174 258 -283 15 -34 29 -49
51 -57 17 -6 75 -32 129 -59 418 -205 629 -529 629 -969 0 -352 -175 -780
-419 -1020 -163 -162 -458 -334 -717 -419 -780 -256 -1610 23 -1914 643 -117
238 -146 489 -89 768 30 150 109 375 215 616 182 410 381 644 627 737 109 40
232 35 491 -22 106 -23 124 -24 172 -14 230 52 492 461 709 1109 27 78 49 141
51 140 1 -2 -7 -48 -18 -103z"/>
<path d="M1861 2974 c-81 -22 -149 -62 -216 -129 -63 -62 -144 -200 -128 -216
4 -4 21 17 38 49 44 83 138 175 219 213 287 134 590 -68 647 -433 39 -252 -90
-522 -298 -621 -63 -30 -75 -32 -173 -32 -99 0 -109 2 -171 33 -82 41 -177
135 -223 221 -43 82 -56 64 -13 -20 72 -141 217 -254 361 -280 242 -45 485
142 563 431 23 88 23 271 0 360 -56 213 -218 388 -398 429 -61 14 -144 12
-208 -5z"/>
<path d="M1060 2877 c-64 -18 -111 -49 -169 -113 -115 -126 -165 -325 -126
-507 30 -145 150 -308 267 -362 73 -34 172 -35 243 -1 28 12 56 30 63 38 10
13 5 12 -25 -3 -21 -10 -63 -21 -93 -25 -108 -12 -229 61 -312 190 -129 199
-102 492 60 659 93 96 232 120 351 61 54 -27 59 -28 41 -9 -61 65 -205 99
-300 72z"/>
<path d="M364 1843 c-14 -159 27 -411 96 -576 65 -158 197 -338 330 -454 593
-514 1518 -503 1940 24 115 142 186 304 226 509 27 139 23 574 -6 574 -4 0
-35 -18 -69 -41 -335 -224 -1096 -298 -1781 -173 -254 46 -511 119 -659 185
-35 16 -65 29 -67 29 -1 0 -6 -35 -10 -77z m105 -12 c97 -76 326 -162 558
-209 79 -16 146 -31 149 -35 7 -7 -78 -894 -87 -909 -5 -8 -31 3 -78 31 -224
133 -419 354 -508 575 -59 148 -74 225 -80 409 -3 92 -2 167 2 167 4 0 24 -13
44 -29z m2406 -158 c18 -288 -62 -585 -213 -783 -54 -72 -144 -159 -149 -144
-4 14 -133 844 -133 858 0 7 26 17 63 25 88 18 284 84 353 120 33 16 62 30 65
31 4 0 10 -48 14 -107z m-515 -73 c0 -6 29 -204 65 -441 36 -236 65 -433 65
-437 0 -10 -102 -74 -175 -110 -109 -54 -331 -112 -429 -112 l-32 0 -33 521
c-18 286 -31 522 -29 525 3 2 72 8 154 14 139 9 374 37 383 46 9 8 31 4 31 -6z
m-990 -29 c58 -6 169 -13 248 -17 134 -6 143 -8 146 -28 3 -12 16 -214 31
-451 14 -236 28 -463 32 -502 l6 -73 -91 0 c-160 0 -345 36 -511 100 -130 50
-121 -9 -72 496 23 242 44 452 47 467 5 24 9 27 32 23 15 -3 74 -10 132 -15z"/>
</g>
</svg>
